0
SECTION
2
HEADER
9
$INSUNITS
70
1
9
$ACADVER
1
AC1014
9
$HANDSEED
5
FFFF
0
ENDSEC
0
SECTION
2
TABLES
0
TABLE
2
VPORT
5
8
100
AcDbSymbolTable
0
ENDTAB
0
TABLE
2
LTYPE
5
5
100
AcDbSymbolTable
0
LTYPE
5
14
100
AcDbSymbolTableRecord
100
AcDbLinetypeTableRecord
2
BYBLOCK
70
0
0
LTYPE
5
15
100
AcDbSymbolTableRecord
100
AcDbLinetypeTableRecord
2
BYLAYER
70
0
0
ENDTAB
0
TABLE
2
LAYER
5
2
100
AcDbSymbolTable
70
2
0
LAYER
5
50
100
AcDbSymbolTableRecord
100
AcDbLayerTableRecord
2
0
70
0
6
CONTINUOUS
0
ENDTAB
0
TABLE
2
STYLE
5
3
100
AcDbSymbolTable
70
1
0
STYLE
5
11
100
AcDbSymbolTableRecord
100
AcDbTextStyleTableRecord
2
STANDARD
70
0
0
ENDTAB
0
TABLE
2
VIEW
5
6
100
AcDbSymbolTable
70
0
0
ENDTAB
0
TABLE
2
UCS
5
7
100
AcDbSymbolTable
70
0
0
ENDTAB
0
TABLE
2
APPID
5
9
100
AcDbSymbolTable
70
2
0
APPID
5
12
100
AcDbSymbolTableRecord
100
AcDbRegAppTableRecord
2
ACAD
70
0
0
ENDTAB
0
TABLE
2
DIMSTYLE
5
A
100
AcDbSymbolTable
70
1
0
ENDTAB
0
TABLE
2
BLOCK_RECORD
5
1
100
AcDbSymbolTable
70
1
0
BLOCK_RECORD
5
1F
100
AcDbSymbolTableRecord
100
AcDbBlockTableRecord
2
*MODEL_SPACE
0
BLOCK_RECORD
5
1B
100
AcDbSymbolTableRecord
100
AcDbBlockTableRecord
2
*PAPER_SPACE
0
ENDTAB
0
ENDSEC
0
SECTION
2
BLOCKS
0
BLOCK
5
20
100
AcDbEntity
100
AcDbBlockBegin
2
*MODEL_SPACE
0
ENDBLK
5
21
100
AcDbEntity
100
AcDbBlockEnd
0
BLOCK
5
1C
100
AcDbEntity
100
AcDbBlockBegin
2
*PAPER_SPACE
0
ENDBLK
5
1D
100
AcDbEntity
100
AcDbBlockEnd
0
ENDSEC
0
SECTION
2
ENTITIES
0
CIRCLE
5
100
100
AcDbEntity
8
0
100
AcDbCircle
10
-15.36308493277885
20
15.626086191091288
30
0
40
0.50000000000000122
210
2.8430407035591011e-33
220
-1.2325951644077687e-32
230
1
0
CIRCLE
5
101
100
AcDbEntity
8
0
100
AcDbCircle
10
-2.6470849327788319
20
-7.0955779204730769
30
0
40
0.48228346456692928
210
7.1510786578704976e-32
220
2.2636725695109968e-46
230
1
0
CIRCLE
5
102
100
AcDbEntity
8
0
100
AcDbCircle
10
-14.933557373723712
20
0.35662207952678482
30
0
40
0.062992125984251982
210
6.1629758220391547e-33
220
4.2168791772922093e-81
230
1
0
CIRCLE
5
103
100
AcDbEntity
8
0
100
AcDbCircle
10
-11.504029814668595
20
0.35662207952678482
30
0
40
0.062992125984251982
210
6.1629758220391547e-33
220
4.2168791772922093e-81
230
1
0
CIRCLE
5
104
100
AcDbEntity
8
0
100
AcDbCircle
10
-13.933557373723714
20
3.3723701110228474
30
0
40
0.062992125984251982
210
6.1629758220391547e-33
220
4.2168791772922093e-81
230
1
0
CIRCLE
5
105
100
AcDbEntity
8
0
100
AcDbCircle
10
-17.363084932778829
20
3.3723701110228492
30
0
40
0.062992125984251982
210
6.1629758220391547e-33
220
4.2168791772922093e-81
230
1
0
CIRCLE
5
106
100
AcDbEntity
8
0
100
AcDbCircle
10
-14.933557373723712
20
3.3723701110228492
30
0
40
0.062992125984251982
210
6.1629758220391547e-33
220
4.2168791772922093e-81
230
1
0
CIRCLE
5
107
100
AcDbEntity
8
0
100
AcDbCircle
10
-11.504029814668595
20
3.3723701110228474
30
0
40
0.062992125984251982
210
6.1629758220391547e-33
220
4.2168791772922093e-81
230
1
0
CIRCLE
5
108
100
AcDbEntity
8
0
100
AcDbCircle
10
-13.933557373723714
20
0.35662207952678482
30
0
40
0.062992125984251982
210
6.1629758220391547e-33
220
4.2168791772922093e-81
230
1
0
CIRCLE
5
109
100
AcDbEntity
8
0
100
AcDbCircle
10
-17.363084932778829
20
0.35662207952678482
30
0
40
0.062992125984251982
210
6.1629758220391547e-33
220
4.2168791772922093e-81
230
1
0
CIRCLE
5
110
100
AcDbEntity
8
0
100
AcDbCircle
10
-9.1684221298848954
20
15.475658543442108
30
0
40
1.5059055118110232
210
6.1629758220391547e-33
220
1.2325951644078309e-32
230
1
0
CIRCLE
5
111
100
AcDbEntity
8
0
100
AcDbCircle
10
-7.5553643346524897
20
14.742991615873638
30
0
40
0.082677165354330714
210
6.1629758220391547e-33
220
1.2325951644078309e-32
230
1
0
CIRCLE
5
112
100
AcDbEntity
8
0
100
AcDbCircle
10
-10.781479925117329
20
16.20832547101044
30
0
40
0.082677165354330714
210
6.1629758220391547e-33
220
1.2325951644078309e-32
230
1
0
CIRCLE
5
113
100
AcDbEntity
8
0
100
AcDbCircle
10
-8.4036973924854159
20
17.073767536446606
30
0
40
0.082677165354330714
210
6.1629758220391547e-33
220
1.2325951644078309e-32
230
1
0
CIRCLE
5
114
100
AcDbEntity
8
0
100
AcDbCircle
10
-9.933146867284373
20
13.877549550437609
30
0
40
0.082677165354330714
210
6.1629758220391547e-33
220
1.2325951644078309e-32
230
1
0
CIRCLE
5
115
100
AcDbEntity
8
0
100
AcDbCircle
10
-15.29615579892082
20
10.062039749957179
30
0
40
2.2834645669291325
210
-4.3779607518526064e-34
220
1.2325951644078309e-32
230
1
0
CIRCLE
5
116
100
AcDbEntity
8
0
100
AcDbCircle
10
-6.8955849327783376
20
-5.6247779204716135
30
0
40
0.099999999999999992
210
-2.2186712959340953e-31
220
1.2325951644078309e-32
230
1
0
CIRCLE
5
117
100
AcDbEntity
8
0
100
AcDbCircle
10
-11.220584932778349
20
-5.6247779204708692
30
0
40
0.099999999999999992
210
-2.2186712959340953e-31
220
1.2325951644078309e-32
230
1
0
CIRCLE
5
118
100
AcDbEntity
8
0
100
AcDbCircle
10
-10.28058493277835
20
-5.6247779204710362
30
0
40
0.099999999999999992
210
-2.2186712959340953e-31
220
1.2325951644078309e-32
230
1
0
CIRCLE
5
119
100
AcDbEntity
8
0
100
AcDbCircle
10
-5.9555849327783372
20
-5.6247779204717796
30
0
40
0.099999999999999992
210
-2.2186712959340953e-31
220
1.2325951644078309e-32
230
1
0
LWPOLYLINE
5
120
100
AcDbEntity
8
0
100
AcDbPolyline
90
8
70
1
43
0.0
10
-5.488084932778424
20
-6.1247779204718578
10
-11.688084932778434
20
-6.1247779204707911
42
0.41421356237309015
10
-11.813084932778455
20
-6.2497779204707697
10
-11.813084932778755
20
-7.9997779204707715
42
0.41421356237309176
10
-11.688084932778779
20
-8.1247779204707893
10
-5.4880849327787686
20
-8.1247779204718586
42
0.41421356237309664
10
-5.3630849327787447
20
-7.9997779204718791
10
-5.3630849327784444
20
-6.2497779204718791
42
0.41421356237309664
0
CIRCLE
5
121
100
AcDbEntity
8
0
100
AcDbCircle
10
-13.229226665062535
20
7.9951106160989154
30
0
40
0.099999999999999992
210
1.664003471950572e-31
220
1.2325951644078309e-32
230
1
0
CIRCLE
5
122
100
AcDbEntity
8
0
100
AcDbCircle
10
-17.363084932779071
20
12.128968883815448
30
0
40
0.099999999999999992
210
1.664003471950572e-31
220
1.2325951644078309e-32
230
1
0
CIRCLE
5
123
100
AcDbEntity
8
0
100
AcDbCircle
10
-13.229226665062535
20
12.128968883815451
30
0
40
0.099999999999999992
210
1.664003471950572e-31
220
1.2325951644078309e-32
230
1
0
CIRCLE
5
124
100
AcDbEntity
8
0
100
AcDbCircle
10
-17.363084932779071
20
7.9951106160989127
30
0
40
0.099999999999999992
210
1.664003471950572e-31
220
1.2325951644078309e-32
230
1
0
CIRCLE
5
125
100
AcDbEntity
8
0
100
AcDbCircle
10
-17.22375422411741
20
14.656086191090406
30
0
40
0.099999999999999992
210
3.9322364787440307e-63
220
1.2325951644078309e-32
230
1
0
CIRCLE
5
126
100
AcDbEntity
8
0
100
AcDbCircle
10
-17.442730602070171
20
-5.7033779204724917
30
0
40
0.099999999999999992
210
3.9322364787440307e-63
220
1.2325951644078309e-32
230
1
0
CIRCLE
5
127
100
AcDbEntity
8
0
100
AcDbCircle
10
-17.442730602070171
20
-7.6433779204724912
30
0
40
0.099999999999999992
210
3.9322364787440307e-63
220
1.2325951644078309e-32
230
1
0
CIRCLE
5
128
100
AcDbEntity
8
0
100
AcDbCircle
10
-17.22375422411741
20
-6.6733779204732082
30
0
40
0.099999999999999992
210
3.9322364787440307e-63
220
1.2325951644078309e-32
230
1
0
CIRCLE
5
129
100
AcDbEntity
8
0
100
AcDbCircle
10
-17.442730602070185
20
13.686086191090414
30
0
40
0.099999999999999992
210
3.9322364787440307e-63
220
1.2325951644078309e-32
230
1
0
CIRCLE
5
130
100
AcDbEntity
8
0
100
AcDbCircle
10
-17.442730602070185
20
15.626086191090414
30
0
40
0.099999999999999992
210
3.9322364787440307e-63
220
1.2325951644078309e-32
230
1
0
LWPOLYLINE
5
131
100
AcDbEntity
8
0
100
AcDbPolyline
90
12
70
1
43
0.0
10
1.3529150672211618
20
-8.5477779204730222
42
-0.4142135623730886
10
1.2573150672211633
20
-8.6433779204730232
10
-18.363084932778829
20
-8.6433779204732133
10
-18.363084932779071
20
16.626086191090639
10
-11.723927524934869
20
16.626086191089016
42
0.087488663525798704
10
-11.707578962083904
20
16.62896888381545
10
-8.054483359833629
20
17.958586945963379
42
-0.41421356237312873
10
-7.9319516195845541
20
17.901449457118176
10
-6.6292652976859419
20
14.322348203068904
42
-0.4142135623730881
10
-6.6864027865311471
20
14.199816462819841
42
0.39749601862821621
10
1.2573150672211035
20
-2.5477779204730249
42
-0.41421356237308915
10
1.3529150672211021
20
-2.6433779204730214
0
ENDSEC
0
SECTION
2
OBJECTS
0
DICTIONARY
5
C
100
AcDbDictionary
3
ACAD_GROUP
350
D
3
ACAD_MLINESTYLE
350
17
0
DICTIONARY
5
D
100
AcDbDictionary
0
DICTIONARY
5
1A
330
C
100
AcDbDictionary
0
DICTIONARY
5
17
100
AcDbDictionary
0
ENDSEC
0
EOF
