0
SECTION
2
HEADER
9
$INSUNITS
70
1
9
$ACADVER
1
AC1014
9
$HANDSEED
5
FFFF
0
ENDSEC
0
SECTION
2
TABLES
0
TABLE
2
VPORT
5
8
100
AcDbSymbolTable
0
ENDTAB
0
TABLE
2
LTYPE
5
5
100
AcDbSymbolTable
0
LTYPE
5
14
100
AcDbSymbolTableRecord
100
AcDbLinetypeTableRecord
2
BYBLOCK
70
0
0
LTYPE
5
15
100
AcDbSymbolTableRecord
100
AcDbLinetypeTableRecord
2
BYLAYER
70
0
0
ENDTAB
0
TABLE
2
LAYER
5
2
100
AcDbSymbolTable
70
2
0
LAYER
5
50
100
AcDbSymbolTableRecord
100
AcDbLayerTableRecord
2
0
70
0
6
CONTINUOUS
0
ENDTAB
0
TABLE
2
STYLE
5
3
100
AcDbSymbolTable
70
1
0
STYLE
5
11
100
AcDbSymbolTableRecord
100
AcDbTextStyleTableRecord
2
STANDARD
70
0
0
ENDTAB
0
TABLE
2
VIEW
5
6
100
AcDbSymbolTable
70
0
0
ENDTAB
0
TABLE
2
UCS
5
7
100
AcDbSymbolTable
70
0
0
ENDTAB
0
TABLE
2
APPID
5
9
100
AcDbSymbolTable
70
2
0
APPID
5
12
100
AcDbSymbolTableRecord
100
AcDbRegAppTableRecord
2
ACAD
70
0
0
ENDTAB
0
TABLE
2
DIMSTYLE
5
A
100
AcDbSymbolTable
70
1
0
ENDTAB
0
TABLE
2
BLOCK_RECORD
5
1
100
AcDbSymbolTable
70
1
0
BLOCK_RECORD
5
1F
100
AcDbSymbolTableRecord
100
AcDbBlockTableRecord
2
*MODEL_SPACE
0
BLOCK_RECORD
5
1B
100
AcDbSymbolTableRecord
100
AcDbBlockTableRecord
2
*PAPER_SPACE
0
ENDTAB
0
ENDSEC
0
SECTION
2
BLOCKS
0
BLOCK
5
20
100
AcDbEntity
100
AcDbBlockBegin
2
*MODEL_SPACE
0
ENDBLK
5
21
100
AcDbEntity
100
AcDbBlockEnd
0
BLOCK
5
1C
100
AcDbEntity
100
AcDbBlockBegin
2
*PAPER_SPACE
0
ENDBLK
5
1D
100
AcDbEntity
100
AcDbBlockEnd
0
ENDSEC
0
SECTION
2
ENTITIES
0
CIRCLE
5
100
100
AcDbEntity
8
0
100
AcDbCircle
10
-14.010155598357994
20
7.0305082706184168
30
0
40
0.50000000000000122
210
4.6987277744839352e-31
220
9.8607613152732318e-32
230
1
0
CIRCLE
5
101
100
AcDbEntity
8
0
100
AcDbCircle
10
-8.5802318000634958
20
5.2819716299653283
30
0
40
0.082677165354331034
210
6.178360830383063e-31
220
4.8463278629794275e-45
230
1
0
CIRCLE
5
102
100
AcDbEntity
8
0
100
AcDbCircle
10
-6.2024492674316205
20
6.1474136954013714
30
6.9935308637805131e-16
40
0.082677165354331034
210
6.178360830383063e-31
220
4.8463278629794275e-45
230
1
0
CIRCLE
5
103
100
AcDbEntity
8
0
100
AcDbCircle
10
-9.42856485789647
20
7.6127475505381588
30
0
40
0.082677165354331034
210
6.178360830383063e-31
220
4.8463278629794275e-45
230
1
0
CIRCLE
5
104
100
AcDbEntity
8
0
100
AcDbCircle
10
-7.8155070626640306
20
6.8800806229698308
30
0
40
1.5059055118110232
210
-9.5988572740371801e-31
220
-7.5293772469816917e-45
230
1
0
CIRCLE
5
105
100
AcDbEntity
8
0
100
AcDbCircle
10
-7.0507823252645627
20
8.4781896159743368
30
6.9935308637805131e-16
40
0.082677165354331034
210
6.178360830383063e-31
220
4.8463278629794275e-45
230
1
0
CIRCLE
5
106
100
AcDbEntity
8
0
100
AcDbCircle
10
-1.2941698655577376
20
-15.69115584094552
30
0
40
0.48250000000000004
210
-3.1980855543053463e-31
220
-9.8607613152698511e-32
230
1
0
CIRCLE
5
107
100
AcDbEntity
8
0
100
AcDbCircle
10
-14.234650180523879
20
-8.7479007226808321
30
6.9935308637805131e-16
40
2.2834645669291325
210
5.0941684988770761e-31
220
3.4175671132300962e-45
230
1
0
CIRCLE
5
108
100
AcDbEntity
8
0
100
AcDbCircle
10
-16.301579314382106
20
-6.6809715888225973
30
6.9935308637805131e-16
40
0.099999999999999992
210
-7.8886090522101216e-31
220
9.8607613152622589e-32
230
1
0
CIRCLE
5
109
100
AcDbEntity
8
0
100
AcDbCircle
10
-12.16757931438209
20
-10.814971588822587
30
0
40
0.099999999999999992
210
-7.8886090522101216e-31
220
9.8607613152622589e-32
230
1
0
CIRCLE
5
110
100
AcDbEntity
8
0
100
AcDbCircle
10
-16.301579314382092
20
-10.814971588822598
30
0
40
0.099999999999999992
210
-7.8886090522101216e-31
220
9.8607613152622589e-32
230
1
0
CIRCLE
5
111
100
AcDbEntity
8
0
100
AcDbCircle
10
-12.16757931438211
20
-6.6809715888225867
30
0
40
0.099999999999999992
210
-7.8886090522101216e-31
220
9.8607613152622589e-32
230
1
0
LWPOLYLINE
5
112
100
AcDbEntity
8
0
100
AcDbPolyline
90
4
70
1
43
0.0
10
-12.344079314382038
20
-16.033971588822581
10
-12.625079314382038
20
-16.033971588822581
10
-12.625079314382038
20
-15.939971588822582
10
-12.344079314382036
20
-15.93997158882258
0
LWPOLYLINE
5
113
100
AcDbEntity
8
0
100
AcDbPolyline
90
4
70
1
43
0.0
10
-12.694079314382035
20
-16.033971588822581
10
-12.975079314382036
20
-16.033971588822585
10
-12.975079314382036
20
-15.939971588822582
10
-12.694079314382035
20
-15.93997158882258
0
LWPOLYLINE
5
114
100
AcDbEntity
8
0
100
AcDbPolyline
90
4
70
1
43
0.0
10
-13.044079314382035
20
-16.033971588822585
10
-13.325079314382034
20
-16.033971588822585
10
-13.325079314382034
20
-15.939971588822589
10
-13.044079314382035
20
-15.939971588822585
0
LWPOLYLINE
5
115
100
AcDbEntity
8
0
100
AcDbPolyline
90
4
70
1
43
0.0
10
-13.394079314382033
20
-16.033971588822581
10
-13.675079314382034
20
-16.033971588822585
10
-13.675079314382034
20
-15.939971588822589
10
-13.394079314382033
20
-15.939971588822585
0
LWPOLYLINE
5
116
100
AcDbEntity
8
0
100
AcDbPolyline
90
4
70
1
43
0.0
10
-13.744079314382036
20
-16.033971588822588
10
-14.025079314382037
20
-16.033971588822592
10
-14.025079314382037
20
-15.939971588822589
10
-13.744079314382036
20
-15.939971588822585
0
LWPOLYLINE
5
117
100
AcDbEntity
8
0
100
AcDbPolyline
90
4
70
1
43
0.0
10
-14.094079314382034
20
-16.033971588822592
10
-14.375079314382035
20
-16.033971588822592
10
-14.375079314382035
20
-15.939971588822594
10
-14.094079314382034
20
-15.939971588822591
0
LWPOLYLINE
5
118
100
AcDbEntity
8
0
100
AcDbPolyline
90
4
70
1
43
0.0
10
-14.444079314382034
20
-16.033971588822588
10
-14.725079314382034
20
-16.033971588822592
10
-14.725079314382034
20
-15.939971588822594
10
-14.444079314382034
20
-15.939971588822591
0
LWPOLYLINE
5
119
100
AcDbEntity
8
0
100
AcDbPolyline
90
4
70
1
43
0.0
10
-14.794079314382037
20
-16.033971588822592
10
-15.075079314382037
20
-16.033971588822595
10
-15.075079314382037
20
-15.939971588822594
10
-14.794079314382037
20
-15.939971588822591
0
LWPOLYLINE
5
120
100
AcDbEntity
8
0
100
AcDbPolyline
90
4
70
1
43
0.0
10
-15.144079314382035
20
-16.033971588822595
10
-15.425079314382035
20
-16.033971588822595
10
-15.425079314382035
20
-15.939971588822596
10
-15.144079314382035
20
-15.939971588822596
0
LWPOLYLINE
5
121
100
AcDbEntity
8
0
100
AcDbPolyline
90
4
70
1
43
0.0
10
-15.494079314382034
20
-16.033971588822592
10
-15.775079314382035
20
-16.033971588822595
10
-15.775079314382035
20
-15.939971588822599
10
-15.494079314382034
20
-15.939971588822596
0
LWPOLYLINE
5
122
100
AcDbEntity
8
0
100
AcDbPolyline
90
4
70
1
43
0.0
10
-15.844079314382032
20
-16.033971588822599
10
-16.125079314382031
20
-16.033971588822599
10
-16.125079314382031
20
-15.939971588822599
10
-15.844079314382032
20
-15.939971588822596
0
LWPOLYLINE
5
123
100
AcDbEntity
8
0
100
AcDbPolyline
90
4
70
1
43
0.0
10
-12.344079314382038
20
-15.683971588822581
10
-12.625079314382038
20
-15.683971588822581
10
-12.625079314382038
20
-15.589971588822582
10
-12.344079314382039
20
-15.589971588822582
0
LWPOLYLINE
5
124
100
AcDbEntity
8
0
100
AcDbPolyline
90
4
70
1
43
0.0
10
-12.694079314382035
20
-15.683971588822581
10
-12.975079314382036
20
-15.683971588822583
10
-12.975079314382036
20
-15.589971588822584
10
-12.694079314382035
20
-15.589971588822582
0
LWPOLYLINE
5
125
100
AcDbEntity
8
0
100
AcDbPolyline
90
4
70
1
43
0.0
10
-13.04407931438204
20
-15.683971588822583
10
-13.325079314382041
20
-15.683971588822583
10
-13.325079314382041
20
-15.589971588822587
10
-13.04407931438204
20
-15.589971588822584
0
LWPOLYLINE
5
126
100
AcDbEntity
8
0
100
AcDbPolyline
90
4
70
1
43
0.0
10
-13.394079314382038
20
-15.683971588822583
10
-13.675079314382039
20
-15.683971588822587
10
-13.675079314382039
20
-15.589971588822587
10
-13.394079314382038
20
-15.589971588822584
0
LWPOLYLINE
5
127
100
AcDbEntity
8
0
100
AcDbPolyline
90
4
70
1
43
0.0
10
-13.744079314382036
20
-15.683971588822587
10
-14.025079314382037
20
-15.683971588822587
10
-14.025079314382037
20
-15.589971588822589
10
-13.744079314382036
20
-15.589971588822587
0
LWPOLYLINE
5
128
100
AcDbEntity
8
0
100
AcDbPolyline
90
4
70
1
43
0.0
10
-14.094079314382041
20
-15.68397158882259
10
-14.375079314382042
20
-15.68397158882259
10
-14.375079314382042
20
-15.589971588822593
10
-14.094079314382041
20
-15.589971588822589
0
LWPOLYLINE
5
129
100
AcDbEntity
8
0
100
AcDbPolyline
90
4
70
1
43
0.0
10
-14.444079314382039
20
-15.68397158882259
10
-14.72507931438204
20
-15.683971588822592
10
-14.72507931438204
20
-15.589971588822593
10
-14.444079314382039
20
-15.589971588822589
0
LWPOLYLINE
5
130
100
AcDbEntity
8
0
100
AcDbPolyline
90
4
70
1
43
0.0
10
-14.794079314382037
20
-15.683971588822592
10
-15.075079314382037
20
-15.683971588822592
10
-15.075079314382037
20
-15.589971588822596
10
-14.794079314382037
20
-15.589971588822593
0
LWPOLYLINE
5
131
100
AcDbEntity
8
0
100
AcDbPolyline
90
4
70
1
43
0.0
10
-15.14407931438204
20
-15.683971588822592
10
-15.425079314382041
20
-15.683971588822596
10
-15.425079314382041
20
-15.589971588822596
10
-15.14407931438204
20
-15.589971588822593
0
LWPOLYLINE
5
132
100
AcDbEntity
8
0
100
AcDbPolyline
90
4
70
1
43
0.0
10
-15.49407931438204
20
-15.683971588822596
10
-15.77507931438204
20
-15.683971588822597
10
-15.77507931438204
20
-15.589971588822598
10
-15.49407931438204
20
-15.589971588822596
0
LWPOLYLINE
5
133
100
AcDbEntity
8
0
100
AcDbPolyline
90
4
70
1
43
0.0
10
-15.844079314382038
20
-15.683971588822597
10
-16.125079314382038
20
-15.683971588822597
10
-16.125079314382038
20
-15.589971588822602
10
-15.844079314382038
20
-15.589971588822598
0
LWPOLYLINE
5
134
100
AcDbEntity
8
0
100
AcDbPolyline
90
4
70
1
43
0.0
10
-12.344079314382038
20
-15.33397158882258
10
-12.625079314382038
20
-15.333971588822584
10
-12.625079314382038
20
-15.239971588822581
10
-12.344079314382039
20
-15.239971588822577
0
LWPOLYLINE
5
135
100
AcDbEntity
8
0
100
AcDbPolyline
90
4
70
1
43
0.0
10
-12.694079314382041
20
-15.33397158882258
10
-12.975079314382041
20
-15.333971588822584
10
-12.975079314382041
20
-15.239971588822586
10
-12.694079314382041
20
-15.239971588822582
0
LWPOLYLINE
5
136
100
AcDbEntity
8
0
100
AcDbPolyline
90
4
70
1
43
0.0
10
-13.04407931438204
20
-15.333971588822584
10
-13.325079314382041
20
-15.333971588822584
10
-13.325079314382041
20
-15.239971588822586
10
-13.04407931438204
20
-15.239971588822582
0
LWPOLYLINE
5
137
100
AcDbEntity
8
0
100
AcDbPolyline
90
4
70
1
43
0.0
10
-13.394079314382038
20
-15.333971588822585
10
-13.675079314382039
20
-15.333971588822589
10
-13.675079314382039
20
-15.239971588822586
10
-13.394079314382038
20
-15.239971588822582
0
LWPOLYLINE
5
138
100
AcDbEntity
8
0
100
AcDbPolyline
90
4
70
1
43
0.0
10
-13.744079314382036
20
-15.333971588822589
10
-14.025079314382037
20
-15.333971588822589
10
-14.025079314382037
20
-15.239971588822591
10
-13.744079314382036
20
-15.23997158882259
0
LWPOLYLINE
5
139
100
AcDbEntity
8
0
100
AcDbPolyline
90
4
70
1
43
0.0
10
-14.094079314382041
20
-15.333971588822589
10
-14.375079314382042
20
-15.333971588822589
10
-14.375079314382042
20
-15.23997158882259
10
-14.094079314382041
20
-15.23997158882259
0
LWPOLYLINE
5
140
100
AcDbEntity
8
0
100
AcDbPolyline
90
4
70
1
43
0.0
10
-14.444079314382039
20
-15.333971588822591
10
-14.72507931438204
20
-15.333971588822594
10
-14.72507931438204
20
-15.239971588822591
10
-14.444079314382039
20
-15.23997158882259
0
LWPOLYLINE
5
141
100
AcDbEntity
8
0
100
AcDbPolyline
90
4
70
1
43
0.0
10
-14.794079314382037
20
-15.333971588822594
10
-15.075079314382037
20
-15.333971588822594
10
-15.075079314382037
20
-15.239971588822597
10
-14.794079314382037
20
-15.239971588822595
0
LWPOLYLINE
5
142
100
AcDbEntity
8
0
100
AcDbPolyline
90
4
70
1
43
0.0
10
-15.14407931438204
20
-15.333971588822591
10
-15.425079314382041
20
-15.333971588822594
10
-15.425079314382041
20
-15.239971588822597
10
-15.14407931438204
20
-15.239971588822595
0
LWPOLYLINE
5
143
100
AcDbEntity
8
0
100
AcDbPolyline
90
4
70
1
43
0.0
10
-15.49407931438204
20
-15.333971588822596
10
-15.77507931438204
20
-15.333971588822596
10
-15.77507931438204
20
-15.239971588822597
10
-15.49407931438204
20
-15.239971588822595
0
LWPOLYLINE
5
144
100
AcDbEntity
8
0
100
AcDbPolyline
90
4
70
1
43
0.0
10
-15.844079314382038
20
-15.3339715888226
10
-16.125079314382038
20
-15.3339715888226
10
-16.125079314382038
20
-15.239971588822602
10
-15.844079314382038
20
-15.2399715888226
0
LWPOLYLINE
5
145
100
AcDbEntity
8
0
100
AcDbPolyline
90
4
70
1
43
0.0
10
-12.344079314382043
20
-14.983971588822579
10
-12.625079314382043
20
-14.983971588822582
10
-12.625079314382043
20
-14.889971588822583
10
-12.344079314382045
20
-14.889971588822579
0
LWPOLYLINE
5
146
100
AcDbEntity
8
0
100
AcDbPolyline
90
4
70
1
43
0.0
10
-12.694079314382041
20
-14.983971588822584
10
-12.975079314382041
20
-14.983971588822584
10
-12.975079314382041
20
-14.889971588822585
10
-12.694079314382041
20
-14.889971588822583
0
LWPOLYLINE
5
147
100
AcDbEntity
8
0
100
AcDbPolyline
90
4
70
1
43
0.0
10
-13.044079314382046
20
-14.983971588822582
10
-13.325079314382046
20
-14.983971588822584
10
-13.325079314382046
20
-14.889971588822588
10
-13.044079314382046
20
-14.889971588822585
0
LWPOLYLINE
5
148
100
AcDbEntity
8
0
100
AcDbPolyline
90
4
70
1
43
0.0
10
-13.394079314382044
20
-14.983971588822584
10
-13.675079314382044
20
-14.983971588822588
10
-13.675079314382044
20
-14.889971588822588
10
-13.394079314382044
20
-14.889971588822585
0
LWPOLYLINE
5
149
100
AcDbEntity
8
0
100
AcDbPolyline
90
4
70
1
43
0.0
10
-13.744079314382041
20
-14.983971588822589
10
-14.025079314382042
20
-14.983971588822589
10
-14.025079314382042
20
-14.88997158882259
10
-13.744079314382041
20
-14.889971588822588
0
LWPOLYLINE
5
150
100
AcDbEntity
8
0
100
AcDbPolyline
90
4
70
1
43
0.0
10
-14.094079314382041
20
-14.983971588822588
10
-14.375079314382042
20
-14.983971588822589
10
-14.375079314382042
20
-14.889971588822593
10
-14.094079314382041
20
-14.88997158882259
0
LWPOLYLINE
5
151
100
AcDbEntity
8
0
100
AcDbPolyline
90
4
70
1
43
0.0
10
-14.444079314382044
20
-14.983971588822589
10
-14.725079314382045
20
-14.983971588822589
10
-14.725079314382045
20
-14.889971588822593
10
-14.444079314382044
20
-14.88997158882259
0
LWPOLYLINE
5
152
100
AcDbEntity
8
0
100
AcDbPolyline
90
4
70
1
43
0.0
10
-14.794079314382042
20
-14.983971588822596
10
-15.075079314382043
20
-14.983971588822596
10
-15.075079314382043
20
-14.889971588822595
10
-14.794079314382042
20
-14.889971588822593
0
LWPOLYLINE
5
153
100
AcDbEntity
8
0
100
AcDbPolyline
90
4
70
1
43
0.0
10
-15.14407931438204
20
-14.983971588822593
10
-15.425079314382041
20
-14.983971588822596
10
-15.425079314382041
20
-14.889971588822599
10
-15.14407931438204
20
-14.889971588822595
0
LWPOLYLINE
5
154
100
AcDbEntity
8
0
100
AcDbPolyline
90
4
70
1
43
0.0
10
-15.494079314382045
20
-14.983971588822596
10
-15.775079314382046
20
-14.983971588822596
10
-15.775079314382046
20
-14.889971588822599
10
-15.494079314382045
20
-14.889971588822595
0
LWPOLYLINE
5
155
100
AcDbEntity
8
0
100
AcDbPolyline
90
4
70
1
43
0.0
10
-15.844079314382043
20
-14.983971588822598
10
-16.125079314382045
20
-14.983971588822602
10
-16.125079314382045
20
-14.889971588822602
10
-15.844079314382043
20
-14.889971588822595
0
LWPOLYLINE
5
156
100
AcDbEntity
8
0
100
AcDbPolyline
90
4
70
1
43
0.0
10
-12.344079314382043
20
-14.633971588822577
10
-12.625079314382043
20
-14.633971588822581
10
-12.625079314382049
20
-14.539971588822583
10
-12.344079314382045
20
-14.539971588822581
0
LWPOLYLINE
5
157
100
AcDbEntity
8
0
100
AcDbPolyline
90
4
70
1
43
0.0
10
-12.694079314382041
20
-14.633971588822581
10
-12.975079314382041
20
-14.633971588822583
10
-12.975079314382048
20
-14.539971588822583
10
-12.694079314382041
20
-14.539971588822581
0
LWPOLYLINE
5
158
100
AcDbEntity
8
0
100
AcDbPolyline
90
4
70
1
43
0.0
10
-13.044079314382046
20
-14.633971588822583
10
-13.325079314382046
20
-14.633971588822586
10
-13.325079314382046
20
-14.539971588822587
10
-13.044079314382046
20
-14.539971588822583
0
LWPOLYLINE
5
159
100
AcDbEntity
8
0
100
AcDbPolyline
90
4
70
1
43
0.0
10
-13.394079314382044
20
-14.633971588822583
10
-13.675079314382044
20
-14.633971588822586
10
-13.675079314382049
20
-14.539971588822588
10
-13.394079314382044
20
-14.539971588822587
0
LWPOLYLINE
5
160
100
AcDbEntity
8
0
100
AcDbPolyline
90
4
70
1
43
0.0
10
-13.744079314382041
20
-14.633971588822586
10
-14.025079314382042
20
-14.63397158882259
10
-14.025079314382047
20
-14.539971588822588
10
-13.744079314382041
20
-14.539971588822587
0
LWPOLYLINE
5
161
100
AcDbEntity
8
0
100
AcDbPolyline
90
4
70
1
43
0.0
10
-14.094079314382046
20
-14.63397158882259
10
-14.375079314382047
20
-14.633971588822591
10
-14.375079314382047
20
-14.539971588822592
10
-14.094079314382046
20
-14.539971588822588
0
LWPOLYLINE
5
162
100
AcDbEntity
8
0
100
AcDbPolyline
90
4
70
1
43
0.0
10
-14.444079314382044
20
-14.63397158882259
10
-14.725079314382045
20
-14.633971588822591
10
-14.725079314382045
20
-14.539971588822596
10
-14.444079314382044
20
-14.539971588822592
0
LWPOLYLINE
5
163
100
AcDbEntity
8
0
100
AcDbPolyline
90
4
70
1
43
0.0
10
-14.794079314382042
20
-14.633971588822591
10
-15.075079314382043
20
-14.633971588822595
10
-15.075079314382048
20
-14.539971588822596
10
-14.794079314382042
20
-14.539971588822592
0
LWPOLYLINE
5
164
100
AcDbEntity
8
0
100
AcDbPolyline
90
4
70
1
43
0.0
10
-15.14407931438204
20
-14.633971588822595
10
-15.425079314382041
20
-14.633971588822597
10
-15.425079314382048
20
-14.539971588822597
10
-15.14407931438204
20
-14.539971588822596
0
LWPOLYLINE
5
165
100
AcDbEntity
8
0
100
AcDbPolyline
90
4
70
1
43
0.0
10
-15.494079314382045
20
-14.633971588822595
10
-15.775079314382046
20
-14.633971588822597
10
-15.775079314382046
20
-14.539971588822601
10
-15.494079314382045
20
-14.539971588822597
0
LWPOLYLINE
5
166
100
AcDbEntity
8
0
100
AcDbPolyline
90
4
70
1
43
0.0
10
-15.844079314382043
20
-14.633971588822597
10
-16.125079314382045
20
-14.6339715888226
10
-16.125079314382049
20
-14.539971588822601
10
-15.844079314382043
20
-14.539971588822597
0
LWPOLYLINE
5
167
100
AcDbEntity
8
0
100
AcDbPolyline
90
4
70
1
43
0.0
10
-12.344079314382048
20
-14.283971588822579
10
-12.625079314382049
20
-14.283971588822583
10
-12.625079314382049
20
-14.189971588822582
10
-12.344079314382048
20
-14.18997158882258
0
LWPOLYLINE
5
168
100
AcDbEntity
8
0
100
AcDbPolyline
90
4
70
1
43
0.0
10
-12.694079314382048
20
-14.283971588822579
10
-12.975079314382048
20
-14.283971588822583
10
-12.975079314382048
20
-14.189971588822585
10
-12.694079314382048
20
-14.189971588822582
0
LWPOLYLINE
5
169
100
AcDbEntity
8
0
100
AcDbPolyline
90
4
70
1
43
0.0
10
-13.044079314382046
20
-14.283971588822583
10
-13.325079314382046
20
-14.283971588822585
10
-13.325079314382046
20
-14.189971588822585
10
-13.044079314382046
20
-14.189971588822582
0
LWPOLYLINE
5
170
100
AcDbEntity
8
0
100
AcDbPolyline
90
4
70
1
43
0.0
10
-13.394079314382049
20
-14.283971588822585
10
-13.675079314382049
20
-14.283971588822588
10
-13.675079314382049
20
-14.189971588822589
10
-13.394079314382049
20
-14.189971588822585
0
LWPOLYLINE
5
171
100
AcDbEntity
8
0
100
AcDbPolyline
90
4
70
1
43
0.0
10
-13.744079314382047
20
-14.283971588822585
10
-14.025079314382047
20
-14.283971588822588
10
-14.025079314382047
20
-14.189971588822591
10
-13.744079314382047
20
-14.189971588822589
0
LWPOLYLINE
5
172
100
AcDbEntity
8
0
100
AcDbPolyline
90
4
70
1
43
0.0
10
-14.44407931438205
20
-14.28397158882259
10
-14.72507931438205
20
-14.283971588822594
10
-14.72507931438205
20
-14.189971588822594
10
-14.44407931438205
20
-14.189971588822591
0
LWPOLYLINE
5
173
100
AcDbEntity
8
0
100
AcDbPolyline
90
4
70
1
43
0.0
10
-14.794079314382047
20
-14.28397158882259
10
-15.075079314382048
20
-14.283971588822594
10
-15.075079314382048
20
-14.189971588822596
10
-14.794079314382047
20
-14.189971588822594
0
LWPOLYLINE
5
174
100
AcDbEntity
8
0
100
AcDbPolyline
90
4
70
1
43
0.0
10
-15.144079314382047
20
-14.283971588822594
10
-15.425079314382048
20
-14.283971588822597
10
-15.425079314382048
20
-14.189971588822596
10
-15.144079314382047
20
-14.189971588822594
0
LWPOLYLINE
5
175
100
AcDbEntity
8
0
100
AcDbPolyline
90
4
70
1
43
0.0
10
-15.494079314382045
20
-14.283971588822597
10
-15.775079314382046
20
-14.283971588822599
10
-15.775079314382046
20
-14.189971588822599
10
-15.494079314382045
20
-14.189971588822596
0
LWPOLYLINE
5
176
100
AcDbEntity
8
0
100
AcDbPolyline
90
4
70
1
43
0.0
10
-15.844079314382048
20
-14.283971588822597
10
-16.125079314382049
20
-14.283971588822599
10
-16.125079314382049
20
-14.189971588822603
10
-15.844079314382048
20
-14.189971588822599
0
LWPOLYLINE
5
177
100
AcDbEntity
8
0
100
AcDbPolyline
90
4
70
1
43
0.0
10
-12.344079314382048
20
-13.933971588822578
10
-12.625079314382049
20
-13.933971588822581
10
-12.625079314382049
20
-13.839971588822582
10
-12.34407931438205
20
-13.839971588822578
0
LWPOLYLINE
5
178
100
AcDbEntity
8
0
100
AcDbPolyline
90
4
70
1
43
0.0
10
-12.694079314382053
20
-13.933971588822581
10
-12.975079314382054
20
-13.933971588822583
10
-12.975079314382054
20
-13.839971588822584
10
-12.694079314382053
20
-13.839971588822582
0
LWPOLYLINE
5
179
100
AcDbEntity
8
0
100
AcDbPolyline
90
4
70
1
43
0.0
10
-13.044079314382051
20
-13.933971588822581
10
-13.325079314382052
20
-13.933971588822583
10
-13.325079314382052
20
-13.839971588822587
10
-13.044079314382051
20
-13.839971588822584
0
LWPOLYLINE
5
180
100
AcDbEntity
8
0
100
AcDbPolyline
90
4
70
1
43
0.0
10
-13.394079314382049
20
-13.933971588822583
10
-13.675079314382049
20
-13.933971588822587
10
-13.675079314382049
20
-13.839971588822587
10
-13.394079314382049
20
-13.839971588822584
0
LWPOLYLINE
5
181
100
AcDbEntity
8
0
100
AcDbPolyline
90
4
70
1
43
0.0
10
-13.744079314382054
20
-13.933971588822587
10
-14.025079314382054
20
-13.93397158882259
10
-14.025079314382054
20
-13.839971588822589
10
-13.744079314382054
20
-13.839971588822587
0
LWPOLYLINE
5
182
100
AcDbEntity
8
0
100
AcDbPolyline
90
4
70
1
43
0.0
10
-14.094079314382052
20
-13.933971588822587
10
-14.375079314382052
20
-13.93397158882259
10
-14.375079314382052
20
-13.839971588822593
10
-14.094079314382052
20
-13.839971588822589
0
LWPOLYLINE
5
183
100
AcDbEntity
8
0
100
AcDbPolyline
90
4
70
1
43
0.0
10
-14.44407931438205
20
-13.93397158882259
10
-14.72507931438205
20
-13.933971588822592
10
-14.72507931438205
20
-13.839971588822593
10
-14.44407931438205
20
-13.839971588822589
0
LWPOLYLINE
5
184
100
AcDbEntity
8
0
100
AcDbPolyline
90
4
70
1
43
0.0
10
-14.794079314382047
20
-13.933971588822592
10
-15.075079314382048
20
-13.933971588822596
10
-15.075079314382048
20
-13.839971588822596
10
-14.794079314382047
20
-13.839971588822593
0
LWPOLYLINE
5
185
100
AcDbEntity
8
0
100
AcDbPolyline
90
4
70
1
43
0.0
10
-15.144079314382052
20
-13.933971588822592
10
-15.425079314382053
20
-13.933971588822596
10
-15.425079314382053
20
-13.839971588822598
10
-15.144079314382052
20
-13.839971588822596
0
LWPOLYLINE
5
186
100
AcDbEntity
8
0
100
AcDbPolyline
90
4
70
1
43
0.0
10
-15.49407931438205
20
-13.933971588822596
10
-15.775079314382051
20
-13.933971588822597
10
-15.775079314382051
20
-13.839971588822598
10
-15.49407931438205
20
-13.839971588822596
0
LWPOLYLINE
5
187
100
AcDbEntity
8
0
100
AcDbPolyline
90
4
70
1
43
0.0
10
-15.844079314382048
20
-13.933971588822597
10
-16.125079314382049
20
-13.933971588822601
10
-16.125079314382049
20
-13.839971588822602
10
-15.844079314382048
20
-13.839971588822598
0
LWPOLYLINE
5
188
100
AcDbEntity
8
0
100
AcDbPolyline
90
4
70
1
43
0.0
10
-12.344079314382054
20
-13.583971588822576
10
-12.625079314382054
20
-13.58397158882258
10
-12.625079314382054
20
-13.489971588822582
10
-12.344079314382054
20
-13.489971588822581
0
LWPOLYLINE
5
189
100
AcDbEntity
8
0
100
AcDbPolyline
90
4
70
1
43
0.0
10
-12.694079314382053
20
-13.58397158882258
10
-12.975079314382054
20
-13.583971588822584
10
-12.975079314382054
20
-13.489971588822582
10
-12.694079314382053
20
-13.489971588822581
0
LWPOLYLINE
5
190
100
AcDbEntity
8
0
100
AcDbPolyline
90
4
70
1
43
0.0
10
-13.044079314382051
20
-13.583971588822584
10
-13.325079314382052
20
-13.583971588822585
10
-13.325079314382052
20
-13.48997158882259
10
-13.044079314382051
20
-13.489971588822586
0
LWPOLYLINE
5
191
100
AcDbEntity
8
0
100
AcDbPolyline
90
4
70
1
43
0.0
10
-13.394079314382049
20
-13.583971588822584
10
-13.675079314382049
20
-13.583971588822585
10
-13.675079314382049
20
-13.48997158882259
10
-13.394079314382049
20
-13.489971588822586
0
LWPOLYLINE
5
192
100
AcDbEntity
8
0
100
AcDbPolyline
90
4
70
1
43
0.0
10
-13.744079314382054
20
-13.583971588822585
10
-14.025079314382054
20
-13.583971588822589
10
-14.025079314382054
20
-13.48997158882259
10
-13.744079314382054
20
-13.489971588822586
0
LWPOLYLINE
5
193
100
AcDbEntity
8
0
100
AcDbPolyline
90
4
70
1
43
0.0
10
-14.094079314382052
20
-13.583971588822589
10
-14.375079314382052
20
-13.583971588822591
10
-14.375079314382052
20
-13.489971588822591
10
-14.094079314382052
20
-13.48997158882259
0
LWPOLYLINE
5
194
100
AcDbEntity
8
0
100
AcDbPolyline
90
4
70
1
43
0.0
10
-14.44407931438205
20
-13.583971588822589
10
-14.72507931438205
20
-13.583971588822591
10
-14.72507931438205
20
-13.489971588822595
10
-14.44407931438205
20
-13.489971588822591
0
LWPOLYLINE
5
195
100
AcDbEntity
8
0
100
AcDbPolyline
90
4
70
1
43
0.0
10
-14.794079314382055
20
-13.583971588822591
10
-15.075079314382053
20
-13.583971588822594
10
-15.075079314382053
20
-13.489971588822595
10
-14.794079314382055
20
-13.489971588822591
0
LWPOLYLINE
5
196
100
AcDbEntity
8
0
100
AcDbPolyline
90
4
70
1
43
0.0
10
-15.144079314382052
20
-13.583971588822594
10
-15.425079314382053
20
-13.583971588822596
10
-15.425079314382053
20
-13.489971588822597
10
-15.144079314382052
20
-13.489971588822595
0
LWPOLYLINE
5
197
100
AcDbEntity
8
0
100
AcDbPolyline
90
4
70
1
43
0.0
10
-15.49407931438205
20
-13.583971588822594
10
-15.775079314382051
20
-13.583971588822596
10
-15.775079314382051
20
-13.4899715888226
10
-15.49407931438205
20
-13.489971588822597
0
LWPOLYLINE
5
198
100
AcDbEntity
8
0
100
AcDbPolyline
90
4
70
1
43
0.0
10
-15.844079314382048
20
-13.583971588822596
10
-16.125079314382049
20
-13.5839715888226
10
-16.125079314382049
20
-13.4899715888226
10
-15.844079314382048
20
-13.489971588822597
0
LWPOLYLINE
5
199
100
AcDbEntity
8
0
100
AcDbPolyline
90
4
70
1
43
0.0
10
-12.344079314382054
20
-13.233971588822579
10
-12.625079314382054
20
-13.233971588822582
10
-12.625079314382054
20
-13.139971588822585
10
-12.344079314382055
20
-13.139971588822583
0
LWPOLYLINE
5
200
100
AcDbEntity
8
0
100
AcDbPolyline
90
4
70
1
43
0.0
10
-12.694079314382058
20
-13.233971588822579
10
-12.975079314382059
20
-13.233971588822582
10
-12.975079314382059
20
-13.139971588822585
10
-12.694079314382058
20
-13.139971588822583
0
LWPOLYLINE
5
201
100
AcDbEntity
8
0
100
AcDbPolyline
90
4
70
1
43
0.0
10
-13.044079314382056
20
-13.233971588822582
10
-13.325079314382057
20
-13.233971588822584
10
-13.325079314382057
20
-13.139971588822588
10
-13.044079314382056
20
-13.139971588822585
0
LWPOLYLINE
5
202
100
AcDbEntity
8
0
100
AcDbPolyline
90
4
70
1
43
0.0
10
-13.394079314382054
20
-13.233971588822584
10
-13.675079314382055
20
-13.233971588822588
10
-13.675079314382055
20
-13.139971588822588
10
-13.394079314382054
20
-13.139971588822585
0
LWPOLYLINE
5
203
100
AcDbEntity
8
0
100
AcDbPolyline
90
4
70
1
43
0.0
10
-13.744079314382054
20
-13.233971588822584
10
-14.025079314382054
20
-13.233971588822588
10
-14.025079314382054
20
-13.13997158882259
10
-13.744079314382054
20
-13.139971588822588
0
LWPOLYLINE
5
204
100
AcDbEntity
8
0
100
AcDbPolyline
90
4
70
1
43
0.0
10
-14.094079314382057
20
-13.233971588822588
10
-14.375079314382058
20
-13.233971588822589
10
-14.375079314382058
20
-13.139971588822593
10
-14.094079314382057
20
-13.13997158882259
0
LWPOLYLINE
5
205
100
AcDbEntity
8
0
100
AcDbPolyline
90
4
70
1
43
0.0
10
-14.444079314382055
20
-13.233971588822589
10
-14.725079314382056
20
-13.233971588822593
10
-14.725079314382056
20
-13.139971588822593
10
-14.444079314382055
20
-13.13997158882259
0
LWPOLYLINE
5
206
100
AcDbEntity
8
0
100
AcDbPolyline
90
4
70
1
43
0.0
10
-14.794079314382055
20
-13.233971588822593
10
-15.075079314382053
20
-13.233971588822593
10
-15.075079314382053
20
-13.139971588822595
10
-14.794079314382055
20
-13.139971588822593
0
LWPOLYLINE
5
207
100
AcDbEntity
8
0
100
AcDbPolyline
90
4
70
1
43
0.0
10
-15.144079314382058
20
-13.233971588822593
10
-15.425079314382058
20
-13.233971588822596
10
-15.425079314382058
20
-13.139971588822599
10
-15.144079314382058
20
-13.139971588822595
0
LWPOLYLINE
5
208
100
AcDbEntity
8
0
100
AcDbPolyline
90
4
70
1
43
0.0
10
-15.494079314382056
20
-13.233971588822596
10
-15.775079314382056
20
-13.233971588822598
10
-15.775079314382056
20
-13.139971588822599
10
-15.494079314382056
20
-13.139971588822595
0
LWPOLYLINE
5
209
100
AcDbEntity
8
0
100
AcDbPolyline
90
4
70
1
43
0.0
10
-15.844079314382054
20
-13.233971588822596
10
-16.125079314382056
20
-13.233971588822598
10
-16.125079314382056
20
-13.139971588822602
10
-15.844079314382054
20
-13.139971588822599
0
LWPOLYLINE
5
210
100
AcDbEntity
8
0
100
AcDbPolyline
90
4
70
1
43
0.0
10
-12.344079314382054
20
-12.883971588822581
10
-12.625079314382054
20
-12.883971588822583
10
-12.625079314382061
20
-12.789971588822583
10
-12.344079314382055
20
-12.789971588822581
0
LWPOLYLINE
5
211
100
AcDbEntity
8
0
100
AcDbPolyline
90
4
70
1
43
0.0
10
-12.694079314382058
20
-12.883971588822581
10
-12.975079314382059
20
-12.883971588822583
10
-12.975079314382059
20
-12.789971588822587
10
-12.694079314382058
20
-12.789971588822583
0
LWPOLYLINE
5
212
100
AcDbEntity
8
0
100
AcDbPolyline
90
4
70
1
43
0.0
10
-13.044079314382056
20
-12.883971588822583
10
-13.325079314382057
20
-12.883971588822586
10
-13.325079314382057
20
-12.789971588822587
10
-13.044079314382056
20
-12.789971588822583
0
LWPOLYLINE
5
213
100
AcDbEntity
8
0
100
AcDbPolyline
90
4
70
1
43
0.0
10
-13.394079314382054
20
-12.883971588822583
10
-13.675079314382055
20
-12.883971588822586
10
-13.67507931438206
20
-12.789971588822588
10
-13.394079314382054
20
-12.789971588822587
0
LWPOLYLINE
5
214
100
AcDbEntity
8
0
100
AcDbPolyline
90
4
70
1
43
0.0
10
-13.744079314382059
20
-12.88397158882259
10
-14.02507931438206
20
-12.88397158882259
10
-14.02507931438206
20
-12.789971588822592
10
-13.744079314382059
20
-12.789971588822588
0
LWPOLYLINE
5
215
100
AcDbEntity
8
0
100
AcDbPolyline
90
4
70
1
43
0.0
10
-14.094079314382057
20
-12.88397158882259
10
-14.375079314382058
20
-12.883971588822591
10
-14.375079314382058
20
-12.789971588822592
10
-14.094079314382057
20
-12.789971588822588
0
LWPOLYLINE
5
216
100
AcDbEntity
8
0
100
AcDbPolyline
90
4
70
1
43
0.0
10
-14.444079314382055
20
-12.88397158882259
10
-14.725079314382056
20
-12.883971588822591
10
-14.725079314382061
20
-12.789971588822596
10
-14.444079314382055
20
-12.789971588822592
0
LWPOLYLINE
5
217
100
AcDbEntity
8
0
100
AcDbPolyline
90
4
70
1
43
0.0
10
-14.794079314382055
20
-12.883971588822591
10
-15.075079314382053
20
-12.883971588822595
10
-15.075079314382061
20
-12.789971588822596
10
-14.794079314382055
20
-12.789971588822592
0
LWPOLYLINE
5
218
100
AcDbEntity
8
0
100
AcDbPolyline
90
4
70
1
43
0.0
10
-15.144079314382058
20
-12.883971588822595
10
-15.425079314382058
20
-12.883971588822597
10
-15.425079314382058
20
-12.789971588822597
10
-15.144079314382058
20
-12.789971588822596
0
LWPOLYLINE
5
219
100
AcDbEntity
8
0
100
AcDbPolyline
90
4
70
1
43
0.0
10
-15.494079314382056
20
-12.883971588822595
10
-15.775079314382056
20
-12.883971588822597
10
-15.775079314382062
20
-12.789971588822601
10
-15.494079314382056
20
-12.789971588822597
0
LWPOLYLINE
5
220
100
AcDbEntity
8
0
100
AcDbPolyline
90
4
70
1
43
0.0
10
-15.844079314382054
20
-12.883971588822597
10
-16.125079314382056
20
-12.8839715888226
10
-16.125079314382059
20
-12.789971588822601
10
-15.844079314382054
20
-12.789971588822597
0
LWPOLYLINE
5
221
100
AcDbEntity
8
0
100
AcDbPolyline
90
4
70
1
43
0.0
10
-12.344079314382061
20
-12.533971588822579
10
-12.625079314382061
20
-12.533971588822583
10
-12.625079314382061
20
-12.439971588822583
10
-12.344079314382061
20
-12.43997158882258
0
LWPOLYLINE
5
222
100
AcDbEntity
8
0
100
AcDbPolyline
90
4
70
1
43
0.0
10
-12.694079314382058
20
-12.533971588822581
10
-12.975079314382059
20
-12.533971588822583
10
-12.975079314382059
20
-12.439971588822585
10
-12.694079314382058
20
-12.439971588822583
0
LWPOLYLINE
5
223
100
AcDbEntity
8
0
100
AcDbPolyline
90
4
70
1
43
0.0
10
-13.044079314382062
20
-12.533971588822583
10
-13.325079314382062
20
-12.533971588822585
10
-13.325079314382062
20
-12.439971588822589
10
-13.044079314382062
20
-12.439971588822585
0
LWPOLYLINE
5
224
100
AcDbEntity
8
0
100
AcDbPolyline
90
4
70
1
43
0.0
10
-13.394079314382061
20
-12.533971588822586
10
-13.67507931438206
20
-12.533971588822588
10
-13.67507931438206
20
-12.439971588822589
10
-13.394079314382061
20
-12.439971588822585
0
LWPOLYLINE
5
225
100
AcDbEntity
8
0
100
AcDbPolyline
90
4
70
1
43
0.0
10
-13.744079314382059
20
-12.533971588822586
10
-14.02507931438206
20
-12.533971588822588
10
-14.02507931438206
20
-12.439971588822591
10
-13.744079314382059
20
-12.439971588822589
0
LWPOLYLINE
5
226
100
AcDbEntity
8
0
100
AcDbPolyline
90
4
70
1
43
0.0
10
-14.094079314382062
20
-12.533971588822588
10
-14.375079314382063
20
-12.53397158882259
10
-14.375079314382063
20
-12.439971588822592
10
-14.094079314382062
20
-12.439971588822589
0
LWPOLYLINE
5
227
100
AcDbEntity
8
0
100
AcDbPolyline
90
4
70
1
43
0.0
10
-14.44407931438206
20
-12.53397158882259
10
-14.725079314382061
20
-12.533971588822592
10
-14.725079314382061
20
-12.439971588822594
10
-14.44407931438206
20
-12.439971588822591
0
LWPOLYLINE
5
228
100
AcDbEntity
8
0
100
AcDbPolyline
90
4
70
1
43
0.0
10
-14.79407931438206
20
-12.533971588822592
10
-15.075079314382061
20
-12.533971588822594
10
-15.075079314382061
20
-12.439971588822596
10
-14.79407931438206
20
-12.439971588822594
0
LWPOLYLINE
5
229
100
AcDbEntity
8
0
100
AcDbPolyline
90
4
70
1
43
0.0
10
-15.144079314382058
20
-12.533971588822595
10
-15.425079314382058
20
-12.533971588822597
10
-15.425079314382058
20
-12.439971588822598
10
-15.144079314382058
20
-12.439971588822596
0
LWPOLYLINE
5
230
100
AcDbEntity
8
0
100
AcDbPolyline
90
4
70
1
43
0.0
10
-15.494079314382061
20
-12.533971588822597
10
-15.775079314382062
20
-12.533971588822597
10
-15.775079314382062
20
-12.439971588822599
10
-15.494079314382061
20
-12.439971588822596
0
LWPOLYLINE
5
231
100
AcDbEntity
8
0
100
AcDbPolyline
90
4
70
1
43
0.0
10
-15.844079314382061
20
-12.533971588822597
10
-16.125079314382059
20
-12.533971588822599
10
-16.125079314382059
20
-12.439971588822601
10
-15.844079314382061
20
-12.439971588822598
0
LWPOLYLINE
5
232
100
AcDbEntity
8
0
100
AcDbPolyline
90
4
70
1
43
0.0
10
-14.094079314382046
20
-14.283971588822588
10
-14.375079314382047
20
-14.28397158882259
10
-14.375079314382047
20
-14.189971588822591
10
-14.094079314382046
20
-14.189971588822589
0
CIRCLE
5
233
100
AcDbEntity
8
0
100
AcDbCircle
10
-16.75516237358671
20
-3.9694917293822551
30
0
40
0.10849999999999999
210
3.5991694185042577e-60
220
1.7731013584834152e-74
230
1
0
CIRCLE
5
234
100
AcDbEntity
8
0
100
AcDbCircle
10
-15.180162373586709
20
-3.9694917293822511
30
6.9935308637805131e-16
40
0.10849999999999999
210
3.5991694185042577e-60
220
1.7731013584834152e-74
230
1
0
LWPOLYLINE
5
235
100
AcDbEntity
8
0
100
AcDbPolyline
90
12
70
1
43
0.0
10
-10.371012457713949
20
8.0305082706169859
10
-17.010155598358214
20
8.0305082706177409
10
-17.010169865557739
20
-17.238955840945636
10
2.6102301344422805
20
-17.238955840945483
42
0.41421356237309614
10
2.7058301344422793
20
-17.143355840945482
10
2.7058301344422073
20
-11.238955840945486
42
0.41421356237319468
10
2.6102301344421694
20
-11.143355840945601
42
-0.39749601862821587
10
-5.3334877193100887
20
5.6042385423474181
42
0.41421356237308421
10
-5.2763502304648844
20
5.7267702825964797
10
-6.5790365523635606
20
9.3058715366459062
42
0.41421356237309764
10
-6.7015682926126248
20
9.3630090254911131
10
-10.354663894862981
20
8.0333909633434182
42
-0.087488663525933069
0
ENDSEC
0
SECTION
2
OBJECTS
0
DICTIONARY
5
C
100
AcDbDictionary
3
ACAD_GROUP
350
D
3
ACAD_MLINESTYLE
350
17
0
DICTIONARY
5
D
100
AcDbDictionary
0
DICTIONARY
5
1A
330
C
100
AcDbDictionary
0
DICTIONARY
5
17
100
AcDbDictionary
0
ENDSEC
0
EOF
